<?xml version="1.0" encoding="UTF-8" standalone="no"?>
<svg
   xmlns:dc="http://purl.org/dc/elements/1.1/"
   xmlns:cc="http://creativecommons.org/ns#"
   xmlns:rdf="http://www.w3.org/1999/02/22-rdf-syntax-ns#"
   xmlns:svg="http://www.w3.org/2000/svg"
   xmlns="http://www.w3.org/2000/svg"
   xmlns:xlink="http://www.w3.org/1999/xlink"
   xmlns:sodipodi="http://sodipodi.sourceforge.net/DTD/sodipodi-0.dtd"
   xmlns:inkscape="http://www.inkscape.org/namespaces/inkscape"
   baseProfile="tiny"
   version="1.1"
   width="100%"
   height="100%"
   viewBox="0 0 64 64"
   id="svg2722"
   sodipodi:version="0.32"
   inkscape:version="0.46"
   sodipodi:docname="MapViewer.svg"
   inkscape:output_extension="org.inkscape.output.svg.inkscape">
  <sodipodi:namedview
     inkscape:window-height="752"
     inkscape:window-width="1280"
     inkscape:pageshadow="2"
     inkscape:pageopacity="0.0"
     guidetolerance="10.0"
     gridtolerance="10.0"
     objecttolerance="10.0"
     borderopacity="1.0"
     bordercolor="#666666"
     pagecolor="#ffffff"
     id="base"
     showgrid="false"
     inkscape:zoom="7.465414"
     inkscape:cx="36.941593"
     inkscape:cy="32.114809"
     inkscape:window-x="20"
     inkscape:window-y="20"
     inkscape:current-layer="svg2722" />
  <metadata
     id="metadata2737">
    <rdf:RDF>
      <cc:Work
         rdf:about="">
        <dc:format>image/svg+xml</dc:format>
        <dc:type
           rdf:resource="http://purl.org/dc/dcmitype/StillImage" />
      </cc:Work>
    </rdf:RDF>
  </metadata>
  <defs
     id="defs2735">
    <linearGradient
       id="SVGID_6_"
       gradientUnits="userSpaceOnUse"
       x1="868.9961"
       y1="-1149.4053"
       x2="868.9961"
       y2="-1269.558"
       gradientTransform="matrix(0.315,0,0,-0.315,-250.1662,-358.4061)">
      <stop
         offset="0"
         style="stop-color:#006A00"
         id="stop3036" />
      <stop
         offset="0.2"
         style="stop-color:#004000"
         id="stop3038" />
      <stop
         offset="1"
         style="stop-color:#00BD00"
         id="stop3040" />
    </linearGradient>
    <clipPath
       id="SVGID_4_">
      <use
         xlink:href="#SVGID_3_"
         overflow="visible"
         id="use3024" />
    </clipPath>
    <radialGradient
       id="SVGID_5_"
       cx="685.6494"
       cy="995.4072"
       r="96.0229"
       gradientTransform="matrix(0.315,0,0,0.315,-193.9387,-303.1233)"
       gradientUnits="userSpaceOnUse">
      <stop
         offset="0"
         style="stop-color:#FFFFFF"
         id="stop3027" />
      <stop
         offset="0.5955"
         style="stop-color:#57ADFF"
         id="stop3029" />
      <stop
         offset="0.9944"
         style="stop-color:#C9E6FF"
         id="stop3031" />
    </radialGradient>
    <linearGradient
       id="SVGID_7_"
       gradientUnits="userSpaceOnUse"
       x1="690.9414"
       y1="977.1572"
       x2="690.9414"
       y2="1069.1414"
       gradientTransform="matrix(0.4230345,0,0,0.4173261,-267.13316,-407.7941)">
      <stop
         offset="0"
         style="stop-color:#FFFFFF"
         id="stop3045" />
      <stop
         offset="1"
         style="stop-color:#94CAFF"
         id="stop3047" />
    </linearGradient>
    <linearGradient
       id="SVGID_8_"
       gradientUnits="userSpaceOnUse"
       x1="25.3057"
       y1="5.1606"
       x2="19.8534"
       y2="32.2952"
       gradientTransform="matrix(1.3429669,0,0,1.3248443,-6.6799174,-6.20292)">
      <stop
         offset="0"
         style="stop-color:#FFFFFF"
         id="stop3052" />
      <stop
         offset="0.4972"
         style="stop-color:#00A100"
         id="stop3054" />
      <stop
         offset="0.9944"
         style="stop-color:#000000"
         id="stop3056" />
    </linearGradient>
    <linearGradient
       id="linearGradient3962">
      <stop
         style="stop-color:#7fc0ff;stop-opacity:1"
         offset="0"
         id="stop3964" />
      <stop
         style="stop-color:#7fc0ff;stop-opacity:1"
         offset="0.15517241"
         id="stop4134" />
      <stop
         style="stop-color:#4074ae;stop-opacity:1"
         offset="0.75"
         id="stop4346" />
      <stop
         style="stop-color:#36486c;stop-opacity:1"
         offset="1"
         id="stop3966" />
    </linearGradient>
    <radialGradient
       cx="18.247644"
       cy="15.716079"
       r="29.993349"
       fx="18.247644"
       fy="15.716079"
       id="radialGradient37575"
       xlink:href="#linearGradient3962"
       gradientUnits="userSpaceOnUse"
       gradientTransform="matrix(62.842226,0,0,43.700876,-203.85851,-170.05386)" />
    <linearGradient
       id="linearGradient1590">
      <stop
         style="stop-color:#686568;stop-opacity:1"
         offset="0"
         id="stop1591" />
      <stop
         style="stop-color:#ffffff;stop-opacity:1"
         offset="1"
         id="stop1592" />
    </linearGradient>
    <linearGradient
       x1="346.42493"
       y1="925.71576"
       x2="289.41486"
       y2="926.23065"
       id="linearGradient1489"
       xlink:href="#linearGradient1590"
       gradientUnits="userSpaceOnUse"
       gradientTransform="scale(1.114458,0.897297)" />
    <linearGradient
       x1="254.10593"
       y1="63.580559"
       x2="343.94727"
       y2="63.580559"
       id="linearGradient1487"
       xlink:href="#linearGradient1810"
       gradientUnits="userSpaceOnUse"
       gradientTransform="scale(1.015268,0.984961)" />
    <linearGradient
       id="linearGradient1810">
      <stop
         style="stop-color:#000000;stop-opacity:0.43298969"
         offset="0"
         id="stop1811" />
      <stop
         style="stop-color:#ffffff;stop-opacity:1"
         offset="1"
         id="stop1812" />
    </linearGradient>
    <linearGradient
       x1="254.10593"
       y1="63.580559"
       x2="349.13837"
       y2="50.700474"
       id="linearGradient1485"
       xlink:href="#linearGradient1810"
       gradientUnits="userSpaceOnUse"
       gradientTransform="scale(1.015268,0.984961)" />
    <linearGradient
       id="linearGradient1722">
      <stop
         style="stop-color:#000000;stop-opacity:1"
         offset="0"
         id="stop1723" />
      <stop
         style="stop-color:#ffffff;stop-opacity:1"
         offset="1"
         id="stop1724" />
    </linearGradient>
    <radialGradient
       cx="565.24121"
       cy="543.26483"
       r="391.34323"
       fx="574.34161"
       fy="543.26483"
       id="radialGradient1556"
       xlink:href="#linearGradient1722"
       gradientUnits="userSpaceOnUse"
       gradientTransform="matrix(6.2698538e-2,2.8289682e-2,-3.8623841e-2,4.5922989e-2,24.141811,1.6670804)" />
    <linearGradient
       id="linearGradient1733">
      <stop
         style="stop-color:#000000;stop-opacity:0"
         offset="0"
         id="stop1734" />
      <stop
         style="stop-color:#ffffff;stop-opacity:1"
         offset="1"
         id="stop1735" />
    </linearGradient>
    <linearGradient
       x1="495.19617"
       y1="222.23244"
       x2="566.57043"
       y2="970.40271"
       id="linearGradient1553"
       xlink:href="#linearGradient1733"
       gradientUnits="userSpaceOnUse"
       gradientTransform="matrix(6.2828347e-2,2.9168959e-2,-3.8544065e-2,4.7154901e-2,24.141809,1.0354686)" />
    <linearGradient
       id="linearGradient1739">
      <stop
         style="stop-color:#000000;stop-opacity:0"
         offset="0"
         id="stop1740" />
      <stop
         style="stop-color:#ffffff;stop-opacity:0.67010307"
         offset="1"
         id="stop1741" />
    </linearGradient>
    <linearGradient
       x1="348.07532"
       y1="583.94635"
       x2="907.19519"
       y2="572.59167"
       id="linearGradient1497"
       xlink:href="#linearGradient1739"
       gradientUnits="userSpaceOnUse"
       gradientTransform="matrix(6.920387e-2,3.122491e-2,-4.2376637e-2,5.0384984e-2,16.128489,-6.8546276)" />
    <linearGradient
       id="linearGradient1649">
      <stop
         style="stop-color:#000000;stop-opacity:0.62244898"
         offset="0"
         id="stop1650" />
      <stop
         style="stop-color:#ffffff;stop-opacity:0.14285715"
         offset="1"
         id="stop1651" />
    </linearGradient>
    <radialGradient
       cx="99.529572"
       cy="2330.5923"
       r="131.67097"
       fx="99.529572"
       fy="2330.5923"
       id="radialGradient1499"
       xlink:href="#linearGradient1649"
       gradientUnits="userSpaceOnUse"
       gradientTransform="matrix(0.1419768,2.7873484e-3,-4.2820711e-4,1.9088637e-2,28.716886,15.457855)" />
    <linearGradient
       x1="-288.95377"
       y1="314.19281"
       x2="-260.1192"
       y2="314.1153"
       id="linearGradient1503"
       xlink:href="#linearGradient1644"
       gradientUnits="userSpaceOnUse" />
    <linearGradient
       id="linearGradient1644">
      <stop
         style="stop-color:#000000;stop-opacity:1"
         offset="0"
         id="stop1645" />
      <stop
         style="stop-color:#ffffff;stop-opacity:1"
         offset="1"
         id="stop1646" />
    </linearGradient>
    <linearGradient
       x1="-289.10797"
       y1="314.1153"
       x2="-260.1192"
       y2="314.1153"
       id="linearGradient1501"
       xlink:href="#linearGradient1644"
       gradientUnits="userSpaceOnUse" />
    <inkscape:perspective
       id="perspective2739"
       inkscape:persp3d-origin="0.5 : 0.33333333 : 1"
       inkscape:vp_z="1 : 0.5 : 1"
       inkscape:vp_y="6.123234e-14 : 1000 : 0"
       inkscape:vp_x="0 : 0.5 : 1"
       sodipodi:type="inkscape:persp3d" />
  </defs>
  <g
     id="g3018"
     transform="matrix(1.3429669,0,0,1.3248443,-6.6799174,-6.20292)">
    <defs
       id="defs3020">
      <path
         id="SVGID_3_"
         d="M 23.589,42.098 C 33.866,42.098 42.205,33.725 42.205,23.453 C 42.205,13.246 33.867,4.872 23.589,4.872 C 13.383,4.872 4.974,13.246 4.974,23.453 C 4.974,33.725 13.384,42.098 23.589,42.098 z" />
    </defs>
    <clipPath
       id="clipPath3089">
      <use
         xlink:href="#SVGID_3_"
         overflow="visible"
         id="use3091"
         style="overflow:visible"
         x="0"
         y="0"
         width="64"
         height="64" />
    </clipPath>
    <radialGradient
       id="radialGradient3093"
       cx="685.64941"
       cy="995.40723"
       r="96.022903"
       gradientTransform="matrix(0.315,0,0,0.315,-193.9387,-303.1233)"
       gradientUnits="userSpaceOnUse">
      <stop
         offset="0"
         style="stop-color:#FFFFFF"
         id="stop3095" />
      <stop
         offset="0.5955"
         style="stop-color:#57ADFF"
         id="stop3097" />
      <stop
         offset="0.9944"
         style="stop-color:#C9E6FF"
         id="stop3099" />
    </radialGradient>
    <path
       clip-path="url(#SVGID_4_)"
       d="M 23.589,42.098 C 33.866,42.098 42.205,33.725 42.205,23.453 C 42.205,13.246 33.867,4.872 23.589,4.872 C 13.383,4.872 4.974,13.246 4.974,23.453 C 4.974,33.725 13.384,42.098 23.589,42.098 z"
       id="path3033"
       style="fill:url(#SVGID_5_)" />
    <linearGradient
       id="linearGradient3102"
       gradientUnits="userSpaceOnUse"
       x1="868.99609"
       y1="-1149.4053"
       x2="868.99609"
       y2="-1269.558"
       gradientTransform="matrix(0.315,0,0,-0.315,-250.1662,-358.4061)">
      <stop
         offset="0"
         style="stop-color:#006A00"
         id="stop3104" />
      <stop
         offset="0.2"
         style="stop-color:#004000"
         id="stop3106" />
      <stop
         offset="1"
         style="stop-color:#00BD00"
         id="stop3108" />
    </linearGradient>
    <path
       clip-path="url(#SVGID_4_)"
       d="M 17.279,6.581 C 17.185,6.581 17.082,6.62 16.977,6.679 C 17.224,6.606 17.34,6.581 17.279,6.581 M 23.396,7.773 L 23.457,6.878 L 22.513,6.937 L 22.638,7.772 L 23.396,7.772 M 12.739,23.237 C 12.549,23.058 12.676,22.281 12.676,22.281 C 12.676,22.281 9.838,20.79 6.749,19.893 C 6.368,19.783 6.561,18.998 6.937,18.701 L 6.812,17.863 C 6.749,17.446 7.443,15.416 8.137,15.238 C 8.831,15.058 8.074,16.431 8.074,16.431 L 7.381,16.849 C 7.381,16.849 8.2,17.804 8.39,17.804 C 8.578,17.804 8.894,17.325 8.894,17.325 L 8.012,16.73 L 8.831,16.371 L 8.883,16.057 L 9.021,16.013 L 10.378,13.957 C 11.316,13.573 12.469,13.098 12.615,13.028 C 12.868,12.909 14.633,11.895 14.948,11.657 C 15.264,11.417 15.956,11.478 16.208,11.478 C 16.461,11.478 16.839,11.358 16.902,10.7 C 16.965,10.044 17.217,9.924 17.407,10.104 C 17.596,10.281 17.217,10.581 17.659,10.7 C 18.1,10.82 18.478,11.118 18.794,10.82 C 19.024,10.602 18.716,10.353 18.508,10.165 L 22.009,10.165 L 22.388,9.088 L 21.568,8.969 L 18.542,8.67 L 18.542,8.312 L 18.3,8.353 C 18.628,6.552 20.574,6.849 19.109,5.806 C 19.02,5.742 17.738,7.827 17.411,7.786 C 16.82,7.708 16.057,7.702 15.894,7.894 C 15.678,8.148 16.377,7.021 16.979,6.679 C 16.261,6.89 14.975,6.237 12.656,7.875 C 11.872,8.429 9.904,10.675 9.093,11.538 C 5.671,15.578 5.395,19.034 5.395,19.187 C 5.395,19.485 6.12,19.654 6.182,20.013 C 6.245,20.369 4.984,21.565 4.984,22.161 C 4.984,22.435 4.353,25.416 5.739,29.145 C 6.969,32.683 9.349,35.803 9.655,35.999 L 10.531,35.534 C 10.531,35.534 9.081,32.967 9.018,32.727 C 8.955,32.489 10.657,29.026 11.478,29.147 C 12.297,29.263 12.108,29.504 12.613,29.206 C 13.118,28.909 13.433,26.459 14,26.222 C 14.568,25.982 15.198,25.684 15.135,25.087 C 15.071,24.489 12.928,23.416 12.739,23.237 M 26.422,5.685 L 24.72,5.087 L 25.035,6.043 L 26.422,5.685 M 20.053,7.894 C 20.243,7.894 24.025,5.388 23.647,5.327 C 23.27,5.268 23.207,5.327 22.196,5.207 C 21.189,5.088 20.115,6.64 19.864,6.88 C 19.612,7.119 19.697,7.894 20.053,7.894 M 37.414,25.895 L 37.902,25.261 L 37.414,25.089 L 37.048,25.549 L 36.621,26.182 L 36.986,26.354 L 37.414,25.895 M 39.549,27.967 L 39.427,27.045 L 38.635,27.045 L 38.573,27.735 L 37.84,27.621 L 37.658,26.873 L 37.292,26.643 L 36.864,27.161 L 36.437,27.047 L 36.314,27.448 L 36.803,27.565 L 36.803,31.303 L 38.53,31.719 C 38.49,31.787 38.461,31.846 38.451,31.877 C 38.328,32.28 38.938,32.455 39.365,32.28 C 39.523,32.217 40.518,31.834 40.834,31.083 C 41.273,30.037 41.558,28.531 41.634,28.044 L 41.441,27.621 L 40.22,28.082 L 39.547,27.967 L 39.549,27.967 M 38.938,12.656 C 36.146,8.423 29.438,5.656 29.438,5.656 L 27.71,6.561 L 27.465,6.16 L 26.856,5.929 L 26.856,6.448 L 27.405,6.909 L 27.04,7.081 L 25.636,7.195 L 22.463,8.922 L 22.768,10.303 L 22.401,10.419 L 22.219,10.706 L 23.257,12.258 L 23.318,12.777 L 22.464,12.949 L 22.464,13.984 L 21.976,14.099 L 22.037,14.905 L 17.886,17.783 L 18.008,19.392 C 18.313,19.795 20.694,22.212 20.694,22.212 C 20.694,22.212 23.44,22.326 24.05,21.982 C 24.661,21.637 24.233,22.327 24.417,22.5 C 24.599,22.673 24.661,23.881 24.843,23.996 C 25.027,24.111 24.843,24.8 25.087,25.033 C 25.331,25.262 25.331,28.024 25.331,28.024 C 25.331,28.024 26.796,30.498 26.796,31.13 C 26.796,31.762 26.734,31.705 27.895,31.648 C 29.054,31.591 29.298,31.13 29.542,30.959 C 29.786,30.788 29.786,30.384 30.03,30.037 C 30.276,29.691 30.702,28.37 31.252,27.91 C 31.8,27.448 33.266,27.102 33.387,26.299 C 33.509,25.492 34.058,24.86 34.058,24.86 L 36.697,22.069 L 36.623,22.444 L 36.562,23.882 L 37.356,23.595 L 37.295,22.04 L 37.011,21.739 L 37.051,21.695 C 37.051,21.695 36.867,21.35 36.624,21.35 C 36.38,21.35 34.914,21.695 34.671,21.638 C 34.427,21.58 33.389,18.818 33.206,18.704 C 33.022,18.589 31.864,16.689 31.864,16.689 C 31.864,16.689 34.548,19.911 34.975,21.177 C 35.223,21.914 36.155,21.228 36.913,20.459 L 37.113,20.948 L 37.6,20.832 L 37.539,20.257 L 38.088,20.257 L 38.088,21.12 L 37.905,21.581 L 37.842,22.328 L 38.331,22.789 L 38.575,22.387 L 39.366,21.638 L 40.282,21.178 L 40.527,21.638 L 40.649,22.271 L 40.405,22.961 L 39.917,23.364 L 39.673,24.4 L 39.673,24.918 L 39.124,24.572 L 39.063,23.48 L 38.27,23.539 L 37.905,24.516 L 38.454,25.323 L 39.735,25.496 L 40.772,24.517 L 40.894,22.621 L 41.356,22.011 C 41.657,22.784 41.872,23.593 41.872,24.346 C 41.872,25.172 42.526,23.929 42.206,21.409 C 42.205,21.406 41.703,15.422 38.938,12.656 z M 26.732,15.135 L 23.437,15.018 L 24.839,13.868 L 25.571,13.868 L 26.731,14.673 L 26.731,15.135 M 30.762,14.732 L 30.762,15.25 L 29.359,15.25 L 29.481,15.596 L 28.626,15.712 L 28.566,15.998 L 27.956,15.885 L 26.856,15.654 L 27.04,15.367 L 27.224,15.02 L 27.834,14.387 L 28.079,14.848 L 28.993,14.79 L 29.481,14.271 L 31.374,14.617 L 30.762,14.732 M 30.883,13.984 L 30.151,14.099 L 30.03,13.58 L 30.944,13.466 L 31.067,12.948 L 31.739,13.639 L 30.883,13.984 L 30.883,13.984 M 34.424,31.877 L 33.996,32.223 L 34.057,33.086 L 34.606,33.086 L 34.606,32.34 L 35.096,31.705 L 35.096,30.383 L 34.789,30.323 L 34.424,31.877 L 34.424,31.877 M 30.335,30.152 C 30.335,30.152 29.907,30.263 30.395,30.439 C 30.883,30.613 32.836,27.621 32.836,27.621 L 31.188,28.656 L 30.335,30.152 L 30.335,30.152 M 27.013,41.18 L 26.648,40.832 L 25.916,40.716 L 25.795,41.065 L 24.818,40.95 L 24.756,40.487 L 24.024,40.487 L 23.231,40.95 L 21.829,40.95 L 21.707,40.602 L 19.45,40.369 L 19.084,40.718 L 18.17,40.488 L 18.047,39.675 L 17.62,39.615 L 17.132,40.487 L 15.485,40.428 C 15.78,40.567 18.238,42.034 22.01,42.34 C 27.012,42.744 29.391,41.529 29.391,41.529 L 29.208,41.353 L 27.013,41.18 L 27.013,41.18 L 27.013,41.18 z"
       id="path3042"
       style="fill:url(#SVGID_6_)" />
  </g>
  <path
     d="M 6.1601887,13.934714 C 8.9320733,16.298236 12.87368,18.117248 17.465283,19.073785 C 17.465283,19.073785 22.693452,18.555773 25.29881,18.555773 C 29.823265,18.555773 37.220325,17.652228 37.220325,17.652228 C 37.296875,17.623081 37.370737,17.593934 37.445945,17.563462 C 37.445945,17.563462 39.927746,15.641114 41.204907,14.809112 C 42.535787,13.941339 45.16263,12.477386 45.16263,12.477386 C 41.225052,5.0609072 33.614459,1.5993384e-06 24.874431,1.5993384e-06 C 19.289031,1.5993384e-06 14.13607,2.0972302 10.119255,5.5696471 C 7.9060455,7.4827235 6.5630785,9.5945253 5.1543067,12.221691 C 5.6149446,12.739706 5.6015147,13.456447 6.1601887,13.934714 z"
     id="path3049"
     style="fill:url(#SVGID_7_)" />
  <path
     d="M 40.127849,5.979025 C 36.42126,2.8431178 32.650209,1.3963876 32.650209,1.3963876 L 30.533693,2.4893842 L 30.204667,1.9581216 L 29.386799,1.6520825 L 29.386799,2.3396767 L 30.124089,2.9504301 L 29.633906,3.1783034 L 27.74838,3.3293356 L 23.487147,5.6173417 L 23.896751,7.4469525 L 23.403882,7.6006333 L 23.160806,7.9808643 L 24.553462,10.037021 L 24.635384,10.724617 L 23.48849,10.95249 L 23.48849,12.323704 L 22.833121,12.476061 L 22.915042,13.543886 L 17.340387,17.358113 L 17.471998,19.069811 C 19.808761,19.557354 22.309365,19.826297 24.916064,19.826297 C 29.444547,19.826297 33.658777,19.023442 37.221667,17.645604 C 36.708655,16.87322 36.111035,15.906084 36.111035,15.906084 C 36.111035,15.906084 36.703283,16.608251 37.447287,17.555514 C 40.659662,16.281014 43.325453,14.538844 45.166659,12.477386 C 43.85861,10.018475 42.146327,7.8205573 40.127849,5.979025 z M 29.220272,13.8486 L 24.795197,13.693593 L 26.678036,12.171347 L 27.661087,12.171347 L 29.218929,13.237847 L 29.218929,13.8486 L 29.220272,13.8486 z M 34.632428,13.314687 L 34.632428,14.000957 L 32.748246,14.000957 L 32.912087,14.459352 L 31.763851,14.613034 L 31.683273,14.991939 L 30.864064,14.842233 L 29.386799,14.536194 L 29.633906,14.155965 L 29.881011,13.696242 L 30.700221,12.857616 L 31.029248,13.468369 L 32.25672,13.391529 L 32.912087,12.703935 L 35.454325,13.16233 L 34.632428,13.314687 z M 34.794928,12.32238 L 34.794928,12.32238 L 33.811875,12.476061 L 33.649376,11.788467 L 34.876848,11.637436 L 35.042032,10.951165 L 35.944507,11.866632 L 34.794928,12.32238 z M 18.559801,8.1305713 C 18.868684,7.8417553 18.45505,7.5118699 18.175714,7.2627986 L 22.87744,7.2627986 L 23.386423,5.8359411 L 22.285191,5.6782845 L 18.218688,5.2834811 L 18.218688,4.8091868 L 17.895033,4.8635055 C 18.335526,2.4774605 20.950281,2.8709395 18.981493,1.4904516 C 18.861969,1.4056615 17.138942,4.1666373 16.701135,4.1136435 C 15.907442,4.0103055 14.881415,4.0023565 14.662512,4.2567266 C 14.373774,4.5932371 15.311165,3.1001376 16.119631,2.6470407 C 15.60796,2.7954233 15.475006,2.1144532 14.24485,2.713283 C 11.309123,4.3150198 9.2490134,6.3605791 9.2490134,6.3605791 C 7.4131765,8.1120233 5.8459346,10.164207 4.6265207,12.44029 C 5.0844728,12.956981 5.6001716,13.453796 6.1575026,13.929415 L 7.2547065,12.289258 C 8.5144095,11.781842 10.062851,11.151217 10.260266,11.058478 C 10.598694,10.900821 12.96903,9.5574293 13.393409,9.2407903 C 13.817785,8.9228293 14.748462,9.0036443 15.085546,9.0036443 C 15.425316,9.0036443 15.932959,8.8446623 16.017565,7.9729153 C 16.102172,7.1038165 16.441944,6.9448354 16.695763,7.1833085 C 16.949584,7.4178061 16.441944,7.8152583 17.034191,7.9729153 C 17.627781,8.1305713 18.135424,8.5266993 18.559801,8.1305713 z M 20.250596,4.2554018 C 20.50576,4.2554018 25.586204,0.9353418 25.07722,0.8545263 C 24.570921,0.7763605 24.486313,0.8545263 23.128574,0.695545 C 21.774864,0.5365636 20.333861,2.594047 19.995433,2.9106847 C 19.658349,3.2286474 19.772501,4.2554018 20.250596,4.2554018 z M 24.740135,4.0950957 L 24.822055,2.90936 L 23.554294,2.9875257 L 23.722165,4.0950957 L 24.740135,4.0950957 z M 28.803952,1.3288206 L 26.518222,0.5365636 L 26.941257,1.8044396 L 28.803952,1.3288206 z"
     id="path3058"
     style="fill:url(#SVGID_8_)" />
  <g
     id="g5776"
     transform="translate(0.2679021,2.1432171)">
    <g
       id="g2724"
       transform="matrix(0.5772089,-1.2064647e-3,4.3652492e-3,0.5761745,25.424932,23.496321)">
      <path
         d="M 18.945,12.405 C 18.945,8.821 19.906,6.871 25.213,5.942 C 28.816,5.311 33.435,5.232 37.744,5.942 C 41.147,6.504 44.013,9.039 44.013,12.405 L 44.013,24.23 C 44.013,27.698 41.232,30.54 37.744,30.54 L 25.212,30.54 C 20.96,30.54 17.375,34.166 17.375,38.265 L 17.375,43.939 L 13.066,43.939 C 9.422,43.939 7.3,41.311 6.408,37.634 C 5.206,32.694 5.257,29.75 6.408,25.019 C 7.406,20.892 10.596,18.714 14.241,18.714 L 18.944,18.714 L 31.48,18.714 L 31.48,17.135 L 18.945,17.135 L 18.945,12.405 L 18.945,12.405 z"
         id="path2726"
         style="fill:#3c75a4" />
      <path
         d="M 44.012,50.248 C 44.012,53.832 40.901,55.646 37.743,56.553 C 32.994,57.918 29.182,57.709 25.212,56.553 C 21.897,55.587 18.944,53.614 18.944,50.248 L 18.944,38.422 C 18.944,35.02 21.781,32.112 25.212,32.112 L 37.743,32.112 C 41.917,32.112 45.58,28.506 45.58,24.23 L 45.58,18.714 L 50.279,18.714 C 53.927,18.714 55.646,21.425 56.547,25.019 C 57.8,30.01 57.856,33.743 56.547,37.634 C 55.279,41.412 53.923,43.939 50.279,43.939 L 44.011,43.939 L 31.48,43.939 L 31.48,45.517 L 44.011,45.517 L 44.011,50.248 L 44.012,50.248 z"
         id="path2728"
         style="fill:#ffc935" />
      <path
         d="M 22.079,11.62 C 22.079,10.31 23.128,9.252 24.429,9.252 C 25.724,9.252 26.778,10.31 26.778,11.62 C 26.778,12.925 25.724,13.983 24.429,13.983 C 23.128,13.983 22.079,12.925 22.079,11.62 z"
         id="path2730"
         style="fill:#ffffff" />
      <path
         d="M 36.179,51.033 C 36.179,49.728 37.233,48.669 38.529,48.669 C 39.828,48.669 40.879,49.729 40.879,51.033 C 40.879,52.342 39.828,53.4 38.529,53.4 C 37.232,53.4 36.179,52.342 36.179,51.033 z"
         id="path2732"
         style="fill:#ffffff" />
    </g>
    <polygon
       transform="matrix(9.6913484e-2,-5.3264647e-2,5.3161536e-2,9.6864067e-2,7.0604208,30.998788)"
       style="fill:none;stroke:#000000;stroke-width:2.09050012;stroke-linejoin:round;stroke-miterlimit:10;stroke-opacity:1"
       id="polygon2902"
       points="399.148,335.866 250.561,273.231 153.198,401.769 215.833,253.182 87.296,155.818 235.883,218.454 333.246,89.917 270.611,238.504 399.148,335.866 "
       stroke-miterlimit="10" />
    <path
       style="fill:none;stroke:#000000;stroke-width:0.06513008;stroke-linejoin:round;stroke-miterlimit:10"
       id="path2872"
       d="M 49.416859,36.379735 C 51.431331,38.482233 52.112344,41.266046 51.297173,44.063736 C 50.481719,46.861586 48.411096,48.84576 45.581305,49.540912 C 42.751617,50.236254 39.999787,49.436719 37.985408,47.334169 C 35.97103,45.231625 35.28998,42.447957 36.105241,39.650217 C 36.9206,36.852416 38.991321,34.868193 41.821061,34.172947 C 44.650799,33.477697 47.402572,34.277136 49.416859,36.379735 L 49.416859,36.379735"
       stroke-miterlimit="10" />
    <polygon
       transform="matrix(9.6913484e-2,-5.3264647e-2,5.3161536e-2,9.6864067e-2,7.0604208,30.998788)"
       style="fill:#000057;fill-opacity:1;fill-rule:evenodd"
       id="polygon2898"
       points="355.6,215.731 260.273,255.688 273.334,358.22 233.377,262.894 130.844,275.954 226.17,235.998 213.11,133.465 253.066,228.791 355.6,215.731 "
       clip-rule="evenodd" />
    <polygon
       transform="matrix(9.6913484e-2,-5.3264647e-2,5.3161536e-2,9.6864067e-2,7.0604208,30.998788)"
       style="fill:#01012a;fill-opacity:1;fill-rule:evenodd"
       id="polygon2900"
       points="399.148,335.866 250.561,273.231 153.198,401.769 215.833,253.182 87.296,155.818 235.883,218.454 333.246,89.917 270.611,238.504 399.148,335.866 "
       clip-rule="evenodd" />
    <polygon
       transform="matrix(9.6913484e-2,-5.3264647e-2,5.3161536e-2,9.6864067e-2,7.0604208,30.998788)"
       style="fill:#ffffff;fill-rule:evenodd"
       id="polygon2906"
       points="255.789,249.382 271.115,245.739 375.814,318.678 255.789,249.382 "
       clip-rule="evenodd" />
    <polygon
       transform="matrix(9.6913484e-2,-5.3264647e-2,5.3161536e-2,9.6864067e-2,7.0604208,30.998788)"
       style="fill:#ffffff;fill-rule:evenodd"
       id="polygon2908"
       points="240.861,257.232 244.194,273.001 171.565,377.258 240.861,257.232 "
       clip-rule="evenodd" />
    <polygon
       transform="matrix(9.6913484e-2,-5.3264647e-2,5.3161536e-2,9.6864067e-2,7.0604208,30.998788)"
       style="fill:#ffffff;fill-rule:evenodd"
       id="polygon2910"
       points="230.654,242.304 214.843,245.608 110.628,173.007 230.654,242.304 "
       clip-rule="evenodd" />
    <polygon
       transform="matrix(9.6913484e-2,-5.3264647e-2,5.3161536e-2,9.6864067e-2,7.0604208,30.998788)"
       style="fill:#ffffff;fill-opacity:1;fill-rule:evenodd"
       id="polygon2912"
       points="246.76,233.274 244.017,216.66 316.057,113.25 246.76,233.274 "
       clip-rule="evenodd" />
    <path
       style="fill:#fffcfc;fill-rule:evenodd"
       id="path2914"
       d="M 45.381477,40.246776 C 46.269271,41.17348 46.236998,42.646836 45.30953,43.535583 C 44.381964,44.424385 42.908725,44.393628 42.020984,43.467028 C 41.133191,42.540325 41.165411,41.066868 42.092932,40.178223 C 43.020497,39.289419 44.493736,39.320172 45.381477,40.246776 L 45.381477,40.246776 z"
       clip-rule="evenodd" />
    <path
       style="fill:none;stroke:#000000;stroke-width:0.32563922;stroke-linejoin:round;stroke-miterlimit:10"
       id="path2916"
       d="M 45.381477,40.246776 C 46.269271,41.17348 46.236998,42.646836 45.30953,43.535583 C 44.381964,44.424385 42.908725,44.393628 42.020984,43.467028 C 41.133191,42.540325 41.165411,41.066868 42.092932,40.178223 C 43.020497,39.289419 44.493736,39.320172 45.381477,40.246776 L 45.381477,40.246776 z"
       stroke-miterlimit="10" />
    <path
       style="fill:#888888;fill-rule:evenodd"
       id="path2934"
       d="M 41.915196,41.95242 C 42.253942,43.226775 43.348277,43.702813 45.133571,43.265769 C 45.159407,43.276535 44.050319,43.988355 43.172343,43.732308 C 42.125127,43.426934 41.709722,41.980497 41.915196,41.95242 L 41.915196,41.95242 z"
       clip-rule="evenodd" />
    <path
       style="fill:#888888;fill-rule:evenodd"
       id="path2936"
       d="M 45.605422,42.394307 C 45.784491,41.00569 44.525594,39.68507 43.126463,39.823131 C 43.10781,39.802242 43.949767,39.659612 44.762387,40.079052 C 45.933094,40.683451 45.887777,42.428624 45.605422,42.394307 L 45.605422,42.394307 z"
       clip-rule="evenodd" />
  </g>
</svg>
