<?xml version="1.0" encoding="UTF-8" standalone="no"?>
<svg
   xmlns:dc="http://purl.org/dc/elements/1.1/"
   xmlns:cc="http://creativecommons.org/ns#"
   xmlns:rdf="http://www.w3.org/1999/02/22-rdf-syntax-ns#"
   xmlns:svg="http://www.w3.org/2000/svg"
   xmlns="http://www.w3.org/2000/svg"
   xmlns:xlink="http://www.w3.org/1999/xlink"
   xmlns:sodipodi="http://sodipodi.sourceforge.net/DTD/sodipodi-0.dtd"
   xmlns:inkscape="http://www.inkscape.org/namespaces/inkscape"
   baseProfile="tiny"
   version="1.1"
   width="100%"
   height="100%"
   viewBox="0 0 64 64"
   id="svg2722"
   sodipodi:version="0.32"
   inkscape:version="0.46"
   sodipodi:docname="TrackLogger.svg"
   inkscape:output_extension="org.inkscape.output.svg.inkscape">
  <sodipodi:namedview
     inkscape:window-height="752"
     inkscape:window-width="1280"
     inkscape:pageshadow="2"
     inkscape:pageopacity="0.0"
     guidetolerance="10.0"
     gridtolerance="10.0"
     objecttolerance="10.0"
     borderopacity="1.0"
     bordercolor="#666666"
     pagecolor="#ffffff"
     id="base"
     showgrid="false"
     inkscape:zoom="7.465414"
     inkscape:cx="22.115305"
     inkscape:cy="28.036985"
     inkscape:window-x="0"
     inkscape:window-y="0"
     inkscape:current-layer="svg2722" />
  <metadata
     id="metadata2737">
    <rdf:RDF>
      <cc:Work
         rdf:about="">
        <dc:format>image/svg+xml</dc:format>
        <dc:type
           rdf:resource="http://purl.org/dc/dcmitype/StillImage" />
      </cc:Work>
    </rdf:RDF>
  </metadata>
  <defs
     id="defs2735">
    <linearGradient
       id="G4">
      <stop
         id="s6"
         style="stop-color:#000"
         offset="0" />
      <stop
         id="s7"
         style="stop-color:#c9c9c9"
         offset="1" />
    </linearGradient>
    <linearGradient
       x1="25.71875"
       y1="31.046875"
       x2="25.514589"
       y2="30.703125"
       id="G17"
       xlink:href="#G4"
       gradientUnits="userSpaceOnUse"
       gradientTransform="translate(-5.825542,0.125)" />
    <linearGradient
       id="G5">
      <stop
         id="s8"
         style="stop-color:#e7e2b8"
         offset="0" />
      <stop
         id="s9"
         style="stop-color:#e7e2b8;stop-opacity:0"
         offset="1" />
    </linearGradient>
    <radialGradient
       cx="29.053354"
       cy="27.640751"
       r="3.2408545"
       fx="29.053354"
       fy="27.640751"
       id="radialGradient2990"
       xlink:href="#G5"
       gradientUnits="userSpaceOnUse"
       gradientTransform="matrix(2.923565,0,0,2.029717,-61.55532,-27.88417)" />
    <linearGradient
       id="G6">
      <stop
         id="s10"
         style="stop-color:#c1c1c1"
         offset="0" />
      <stop
         id="s11"
         style="stop-color:#acacac"
         offset="1" />
    </linearGradient>
    <linearGradient
       x1="46"
       y1="19.8125"
       x2="47.6875"
       y2="22.625"
       id="G16"
       xlink:href="#G6"
       gradientUnits="userSpaceOnUse"
       gradientTransform="translate(-5.669292,0)" />
    <linearGradient
       id="G7">
      <stop
         id="s12"
         style="stop-color:#ffd1d1"
         offset="0" />
      <stop
         id="s13"
         style="stop-color:#ff1d1d"
         offset="0.5" />
      <stop
         id="s14"
         style="stop-color:#6f0000"
         offset="1" />
    </linearGradient>
    <linearGradient
       x1="48.90625"
       y1="17.376184"
       x2="50.988335"
       y2="22.250591"
       id="G15"
       xlink:href="#G7"
       gradientUnits="userSpaceOnUse"
       gradientTransform="translate(-5.669292,0)" />
    <linearGradient
       id="G8">
      <stop
         id="s15"
         style="stop-color:#a3a4a0"
         offset="0" />
      <stop
         id="s16"
         style="stop-color:#888a85"
         offset="1" />
    </linearGradient>
    <linearGradient
       x1="6"
       y1="7.5625"
       x2="40.984375"
       y2="7.5625"
       id="G14"
       xlink:href="#G8"
       gradientUnits="userSpaceOnUse" />
    <linearGradient
       id="G10">
      <stop
         id="s19"
         style="stop-color:#000"
         offset="0" />
      <stop
         id="s20"
         style="stop-color:#000;stop-opacity:0"
         offset="1" />
    </linearGradient>
    <radialGradient
       cx="23.5625"
       cy="40.4375"
       r="19.5625"
       fx="23.5625"
       fy="40.4375"
       id="R3"
       xlink:href="#G10"
       gradientUnits="userSpaceOnUse"
       gradientTransform="matrix(1,0,0,0.348243,0,26.35543)" />
    <linearGradient
       id="G9">
      <stop
         id="s17"
         style="stop-color:#939393"
         offset="0" />
      <stop
         id="s18"
         style="stop-color:#424242"
         offset="1" />
    </linearGradient>
    <linearGradient
       x1="26.612417"
       y1="28.083368"
       x2="26.228401"
       y2="42.83337"
       id="G13"
       xlink:href="#G9"
       gradientUnits="userSpaceOnUse" />
    <linearGradient
       id="G11">
      <stop
         id="s21"
         style="stop-color:#dfdfdf"
         offset="0" />
      <stop
         id="s22"
         style="stop-color:#fff"
         offset="1" />
    </linearGradient>
    <linearGradient
       x1="21.043484"
       y1="42.83337"
       x2="14.283642"
       y2="6.8333683"
       id="G12"
       xlink:href="#G11"
       gradientUnits="userSpaceOnUse"
       gradientTransform="matrix(1.137871,0,0,1,-2.660884,0)" />
    <radialGradient
       cx="605.71429"
       cy="486.64789"
       r="117.14286"
       fx="605.71429"
       fy="486.64789"
       id="R1"
       xlink:href="#G1"
       gradientUnits="userSpaceOnUse"
       gradientTransform="matrix(-2.774389,0,0,1.969706,112.7623,-872.8854)" />
    <linearGradient
       id="G1">
      <stop
         id="s1"
         style="stop-color:#000"
         offset="0" />
      <stop
         id="s2"
         style="stop-color:#000;stop-opacity:0"
         offset="1" />
    </linearGradient>
    <radialGradient
       cx="605.71429"
       cy="486.64789"
       r="117.14286"
       fx="605.71429"
       fy="486.64789"
       id="R2"
       xlink:href="#G1"
       gradientUnits="userSpaceOnUse"
       gradientTransform="matrix(2.774389,0,0,1.969706,-1891.633,-872.8854)" />
    <linearGradient
       id="G2">
      <stop
         id="s3"
         style="stop-color:#000;stop-opacity:0"
         offset="0" />
      <stop
         id="s4"
         style="stop-color:#000"
         offset="0.5" />
      <stop
         id="s5"
         style="stop-color:#000;stop-opacity:0"
         offset="1" />
    </linearGradient>
    <linearGradient
       x1="302.85715"
       y1="366.64789"
       x2="302.85715"
       y2="609.50507"
       id="G3"
       xlink:href="#G2"
       gradientUnits="userSpaceOnUse"
       gradientTransform="matrix(2.774389,0,0,1.969706,-1892.179,-872.8854)" />
    <linearGradient
       id="linearGradient3962">
      <stop
         style="stop-color:#7fc0ff;stop-opacity:1"
         offset="0"
         id="stop3964" />
      <stop
         style="stop-color:#7fc0ff;stop-opacity:1"
         offset="0.15517241"
         id="stop4134" />
      <stop
         style="stop-color:#4074ae;stop-opacity:1"
         offset="0.75"
         id="stop4346" />
      <stop
         style="stop-color:#36486c;stop-opacity:1"
         offset="1"
         id="stop3966" />
    </linearGradient>
    <radialGradient
       cx="18.247644"
       cy="15.716079"
       r="29.993349"
       fx="18.247644"
       fy="15.716079"
       id="radialGradient37575"
       xlink:href="#linearGradient3962"
       gradientUnits="userSpaceOnUse"
       gradientTransform="matrix(62.842226,0,0,43.700876,-203.85851,-170.05386)" />
    <linearGradient
       id="linearGradient1590">
      <stop
         style="stop-color:#686568;stop-opacity:1"
         offset="0"
         id="stop1591" />
      <stop
         style="stop-color:#ffffff;stop-opacity:1"
         offset="1"
         id="stop1592" />
    </linearGradient>
    <linearGradient
       x1="346.42493"
       y1="925.71576"
       x2="289.41486"
       y2="926.23065"
       id="linearGradient1489"
       xlink:href="#linearGradient1590"
       gradientUnits="userSpaceOnUse"
       gradientTransform="scale(1.114458,0.897297)" />
    <linearGradient
       x1="254.10593"
       y1="63.580559"
       x2="343.94727"
       y2="63.580559"
       id="linearGradient1487"
       xlink:href="#linearGradient1810"
       gradientUnits="userSpaceOnUse"
       gradientTransform="scale(1.015268,0.984961)" />
    <linearGradient
       id="linearGradient1810">
      <stop
         style="stop-color:#000000;stop-opacity:0.43298969"
         offset="0"
         id="stop1811" />
      <stop
         style="stop-color:#ffffff;stop-opacity:1"
         offset="1"
         id="stop1812" />
    </linearGradient>
    <linearGradient
       x1="254.10593"
       y1="63.580559"
       x2="349.13837"
       y2="50.700474"
       id="linearGradient1485"
       xlink:href="#linearGradient1810"
       gradientUnits="userSpaceOnUse"
       gradientTransform="scale(1.015268,0.984961)" />
    <linearGradient
       id="linearGradient1722">
      <stop
         style="stop-color:#000000;stop-opacity:1"
         offset="0"
         id="stop1723" />
      <stop
         style="stop-color:#ffffff;stop-opacity:1"
         offset="1"
         id="stop1724" />
    </linearGradient>
    <radialGradient
       cx="565.24121"
       cy="543.26483"
       r="391.34323"
       fx="574.34161"
       fy="543.26483"
       id="radialGradient1556"
       xlink:href="#linearGradient1722"
       gradientUnits="userSpaceOnUse"
       gradientTransform="matrix(6.2698538e-2,2.8289682e-2,-3.8623841e-2,4.5922989e-2,24.141811,1.6670804)" />
    <linearGradient
       id="linearGradient1733">
      <stop
         style="stop-color:#000000;stop-opacity:0"
         offset="0"
         id="stop1734" />
      <stop
         style="stop-color:#ffffff;stop-opacity:1"
         offset="1"
         id="stop1735" />
    </linearGradient>
    <linearGradient
       x1="495.19617"
       y1="222.23244"
       x2="566.57043"
       y2="970.40271"
       id="linearGradient1553"
       xlink:href="#linearGradient1733"
       gradientUnits="userSpaceOnUse"
       gradientTransform="matrix(6.2828347e-2,2.9168959e-2,-3.8544065e-2,4.7154901e-2,24.141809,1.0354686)" />
    <linearGradient
       id="linearGradient1739">
      <stop
         style="stop-color:#000000;stop-opacity:0"
         offset="0"
         id="stop1740" />
      <stop
         style="stop-color:#ffffff;stop-opacity:0.67010307"
         offset="1"
         id="stop1741" />
    </linearGradient>
    <linearGradient
       x1="348.07532"
       y1="583.94635"
       x2="907.19519"
       y2="572.59167"
       id="linearGradient1497"
       xlink:href="#linearGradient1739"
       gradientUnits="userSpaceOnUse"
       gradientTransform="matrix(6.920387e-2,3.122491e-2,-4.2376637e-2,5.0384984e-2,16.128489,-6.8546276)" />
    <linearGradient
       id="linearGradient1649">
      <stop
         style="stop-color:#000000;stop-opacity:0.62244898"
         offset="0"
         id="stop1650" />
      <stop
         style="stop-color:#ffffff;stop-opacity:0.14285715"
         offset="1"
         id="stop1651" />
    </linearGradient>
    <radialGradient
       cx="99.529572"
       cy="2330.5923"
       r="131.67097"
       fx="99.529572"
       fy="2330.5923"
       id="radialGradient1499"
       xlink:href="#linearGradient1649"
       gradientUnits="userSpaceOnUse"
       gradientTransform="matrix(0.1419768,2.7873484e-3,-4.2820711e-4,1.9088637e-2,28.716886,15.457855)" />
    <linearGradient
       x1="-288.95377"
       y1="314.19281"
       x2="-260.1192"
       y2="314.1153"
       id="linearGradient1503"
       xlink:href="#linearGradient1644"
       gradientUnits="userSpaceOnUse" />
    <linearGradient
       id="linearGradient1644">
      <stop
         style="stop-color:#000000;stop-opacity:1"
         offset="0"
         id="stop1645" />
      <stop
         style="stop-color:#ffffff;stop-opacity:1"
         offset="1"
         id="stop1646" />
    </linearGradient>
    <linearGradient
       x1="-289.10797"
       y1="314.1153"
       x2="-260.1192"
       y2="314.1153"
       id="linearGradient1501"
       xlink:href="#linearGradient1644"
       gradientUnits="userSpaceOnUse" />
    <inkscape:perspective
       id="perspective2739"
       inkscape:persp3d-origin="0.5 : 0.33333333 : 1"
       inkscape:vp_z="1 : 0.5 : 1"
       inkscape:vp_y="6.123234e-14 : 1000 : 0"
       inkscape:vp_x="0 : 0.5 : 1"
       sodipodi:type="inkscape:persp3d" />
  </defs>
  <g
     id="layer1"
     transform="matrix(1.0163731,0,0,1.2887962,9.9370094e-2,-2.1961023)">
    <g
       transform="matrix(2.417561e-2,0,0,2.086758e-2,45.12765,40.1536)"
       id="g6707">
      <rect
         width="1339.6335"
         height="478.35718"
         x="-1559.2523"
         y="-150.69685"
         id="rect6709"
         style="opacity:0.4;fill:url(#G3)" />
      <path
         d="M -219.61876,-150.68038 C -219.61876,-150.68038 -219.61876,327.65041 -219.61876,327.65041 C -76.744594,328.55086 125.78146,220.48075 125.78138,88.454235 C 125.78138,-43.572302 -33.655436,-150.68036 -219.61876,-150.68038 z"
         id="p1"
         style="opacity:0.4;fill:url(#R2)" />
      <path
         d="M -1559.2523,-150.68038 C -1559.2523,-150.68038 -1559.2523,327.65041 -1559.2523,327.65041 C -1702.1265,328.55086 -1904.6525,220.48075 -1904.6525,88.454235 C -1904.6525,-43.572302 -1745.2157,-150.68036 -1559.2523,-150.68038 z"
         id="p2"
         style="opacity:0.4;fill:url(#R1)" />
    </g>
    <path
       d="M 7.1638699,4.5063726 L 39.813122,4.5063726 C 40.575699,4.5063726 41.189615,5.0388241 41.189615,5.7002099 C 41.189615,5.7002099 43.590945,39.868907 43.590945,39.868907 C 43.590945,39.868907 43.603403,42.216529 43.603403,42.216529 C 43.603403,42.877915 42.989488,43.410366 42.226911,43.410366 L 4.750081,43.410366 C 3.9875042,43.410366 3.3735887,42.877915 3.3735887,42.216529 L 3.3624173,40.049613 L 5.7873775,5.7002099 C 5.7873775,5.0388241 6.4012931,4.5063726 7.1638699,4.5063726 z"
       id="p3"
       style="fill:url(#G12);stroke:url(#G13)" />
    <path
       d="M 43.125,40.4375 C 43.125,44.19994 34.36657,47.25 23.5625,47.25 C 12.75843,47.25 4,44.19994 4,40.4375 C 4,36.67506 12.75843,33.625 23.5625,33.625 C 34.36657,33.625 43.125,36.67506 43.125,40.4375 L 43.125,40.4375 z"
       transform="matrix(0.616613,0,0,0.440367,10.61425,13.94266)"
       id="p4"
       style="opacity:0.31578944;fill:url(#R3)" />
    <rect
       width="39.048077"
       height="3.0714951"
       rx="0.67937863"
       ry="0.67937863"
       x="3.9770372"
       y="39.868271"
       id="rect2851"
       style="fill:#a4a4a4" />
    <path
       d="M 3.9267507,40.442796 C 3.9267507,40.442796 4.0776125,39.912466 4.6307727,39.868272 L 42.195375,39.868272 C 42.949684,39.868272 43,40.619573 43,40.619573 C 43,40.619573 43.02357,39 41.7161,39 L 5.3042159,39 C 4.2984702,39.088388 3.9267507,39.779883 3.9267507,40.442796 z"
       id="p5"
       style="fill:#ffffff" />
    <path
       d="M 6.25,5.7343749 L 6,10.125 C 6,10.125 6.3125,9 7,9 L 40.125,9 C 40.828125,8.9843749 40.859375,9.3124999 40.984375,9.8281249 C 40.984375,9.8281249 40.734375,5.9531249 40.734375,5.9531249 C 40.703125,5.4062499 40.515625,5 39.953125,5 L 7.0625,5 C 6.609375,5 6.296875,5.3437499 6.25,5.7343749 z"
       id="p6"
       style="fill:url(#G14)" />
    <path
       d="M 7.8126474,5.5404503 L 38.944983,5.5404503 C 39.66702,5.5404503 40.2483,5.3883462 40.2483,6.014572 C 40.2483,6.014572 42.521973,39.023077 42.521973,39.023077 C 42.521973,39.023077 42.622156,41.732033 42.622156,41.732033 C 42.622156,42.358259 42.48282,42.376269 41.760782,42.376269 L 4.8620444,42.376269 C 4.4493662,42.376269 4.4426114,42.269871 4.4426114,41.864615 L 4.4320338,39.194177 L 6.7280807,6.045822 C 6.7280807,5.4195962 7.09061,5.5404503 7.8126474,5.5404503 z"
       id="p7"
       style="opacity:0.43859648;fill:none;stroke:#ffffff" />
    <g
       id="g2950">
      <rect
         width="2"
         height="5"
         rx="1"
         ry="1"
         x="8.5"
         y="2.5"
         id="rect2899"
         style="fill:#fce94f;stroke:#886f00" />
      <rect
         width="2"
         height="5"
         rx="1"
         ry="1"
         x="12.5"
         y="2.5"
         id="rect2901"
         style="fill:#fce94f;stroke:#886f00" />
      <rect
         width="2"
         height="5"
         rx="1"
         ry="1"
         x="16.5"
         y="2.5"
         id="rect2903"
         style="fill:#fce94f;stroke:#886f00" />
      <rect
         width="2"
         height="5"
         rx="1"
         ry="1"
         x="20.5"
         y="2.5"
         id="rect2905"
         style="fill:#fce94f;stroke:#886f00" />
      <rect
         width="2"
         height="5"
         rx="1"
         ry="1"
         x="24.5"
         y="2.5"
         id="rect2907"
         style="fill:#fce94f;stroke:#886f00" />
      <rect
         width="2"
         height="5"
         rx="1"
         ry="1"
         x="28.5"
         y="2.5"
         id="rect2909"
         style="fill:#fce94f;stroke:#886f00" />
      <rect
         width="2"
         height="5"
         rx="1"
         ry="1"
         x="32.5"
         y="2.5"
         id="rect2911"
         style="fill:#fce94f;stroke:#886f00" />
      <rect
         width="2"
         height="5"
         rx="1"
         ry="1"
         x="36.5"
         y="2.5"
         id="rect2913"
         style="fill:#fce94f;stroke:#886f00" />
    </g>
    <g
       id="g2941">
      <rect
         width="29"
         height="1"
         x="9"
         y="12"
         id="rect2927"
         style="opacity:0.28070003;fill:#000000" />
      <rect
         width="29"
         height="1"
         x="9"
         y="14.981792"
         id="rect2929"
         style="opacity:0.28070003;fill:#000000" />
      <rect
         width="13"
         height="1"
         x="9"
         y="18.003939"
         id="rect2931"
         style="opacity:0.28070003;fill:#000000" />
      <rect
         width="29"
         height="1"
         x="9"
         y="22.985731"
         id="rect2933"
         style="opacity:0.28070003;fill:#000000" />
      <rect
         width="29"
         height="1"
         x="9"
         y="26.007877"
         id="rect2935"
         style="opacity:0.28070003;fill:#000000" />
      <rect
         width="29"
         height="1"
         x="9"
         y="29.030024"
         id="rect2937"
         style="opacity:0.28070003;fill:#000000" />
      <rect
         width="8"
         height="1"
         x="9"
         y="32.05217"
         id="rect2939"
         style="opacity:0.28070003;fill:#000000" />
    </g>
    <path
       d="M 17.34116,32.5 L 22.96616,26.875 L 43.059909,17.125 C 46.31,15.875 48.247409,20.5 45.372409,22.125 L 25.34116,31.5 L 17.34116,32.5 z"
       id="path2960"
       style="fill:#cb9022;stroke:#5c410c" />
    <path
       d="M 38.330708,20 C 38.330708,20 39.768208,20.09375 40.330708,21.34375 C 40.910201,22.631511 40.330708,24 40.330708,24 L 45.361958,21.53125 C 45.361958,21.53125 46.81399,20.649883 46.018208,18.6875 C 45.233296,16.751923 43.330708,17.53125 43.330708,17.53125 L 38.330708,20 z"
       id="p8"
       style="fill:url(#G15)" />
    <path
       d="M 38.330708,20 C 38.330708,20 39.768208,20.09375 40.330708,21.34375 C 40.910201,22.631511 40.330708,24 40.330708,24 L 42.330708,23 C 42.330708,23 43.15774,21.681133 42.549458,20.3125 C 41.924458,18.90625 40.330708,19 40.330708,19 L 38.330708,20 z"
       id="p9"
       style="fill:url(#G16)" />
    <path
       d="M 18.768208,31.78125 L 23.268208,27.28125 C 24.768208,28.09375 25.549458,29.4375 25.143208,31 L 18.768208,31.78125 z"
       id="p10"
       style="fill:url(#radialGradient2990)" />
    <path
       d="M 20.111958,30.375 L 18.486958,31.96875 L 20.830708,31.65625 C 21.049458,30.9375 20.643208,30.59375 20.111958,30.375 z"
       id="p11"
       style="fill:url(#G17)" />
    <path
       d="M 23.268208,27.25 L 24.830708,28.5 L 40.218048,21.18133 C 39.773616,20.325286 38.976281,20.096733 38.314669,20.019068 L 23.268208,27.25 z"
       id="p12"
       style="fill:#ffffff;fill-opacity:0.36363639" />
    <path
       d="M 25.143208,31.0625 L 25.330708,30.3125 L 40.561798,23.1829 C 40.561798,23.1829 40.451638,23.796527 40.345919,23.93225 L 25.143208,31.0625 z"
       id="p13"
       style="fill:#000000;fill-opacity:0.36363639" />
  </g>
  <g
     id="g5776"
     transform="translate(0,2.0092657)">
    <g
       id="g2724"
       transform="matrix(0.5772089,-1.2064647e-3,4.3652492e-3,0.5761745,25.424932,23.496321)">
      <path
         d="M 18.945,12.405 C 18.945,8.821 19.906,6.871 25.213,5.942 C 28.816,5.311 33.435,5.232 37.744,5.942 C 41.147,6.504 44.013,9.039 44.013,12.405 L 44.013,24.23 C 44.013,27.698 41.232,30.54 37.744,30.54 L 25.212,30.54 C 20.96,30.54 17.375,34.166 17.375,38.265 L 17.375,43.939 L 13.066,43.939 C 9.422,43.939 7.3,41.311 6.408,37.634 C 5.206,32.694 5.257,29.75 6.408,25.019 C 7.406,20.892 10.596,18.714 14.241,18.714 L 18.944,18.714 L 31.48,18.714 L 31.48,17.135 L 18.945,17.135 L 18.945,12.405 L 18.945,12.405 z"
         id="path2726"
         style="fill:#3c75a4" />
      <path
         d="M 44.012,50.248 C 44.012,53.832 40.901,55.646 37.743,56.553 C 32.994,57.918 29.182,57.709 25.212,56.553 C 21.897,55.587 18.944,53.614 18.944,50.248 L 18.944,38.422 C 18.944,35.02 21.781,32.112 25.212,32.112 L 37.743,32.112 C 41.917,32.112 45.58,28.506 45.58,24.23 L 45.58,18.714 L 50.279,18.714 C 53.927,18.714 55.646,21.425 56.547,25.019 C 57.8,30.01 57.856,33.743 56.547,37.634 C 55.279,41.412 53.923,43.939 50.279,43.939 L 44.011,43.939 L 31.48,43.939 L 31.48,45.517 L 44.011,45.517 L 44.011,50.248 L 44.012,50.248 z"
         id="path2728"
         style="fill:#ffc935" />
      <path
         d="M 22.079,11.62 C 22.079,10.31 23.128,9.252 24.429,9.252 C 25.724,9.252 26.778,10.31 26.778,11.62 C 26.778,12.925 25.724,13.983 24.429,13.983 C 23.128,13.983 22.079,12.925 22.079,11.62 z"
         id="path2730"
         style="fill:#ffffff" />
      <path
         d="M 36.179,51.033 C 36.179,49.728 37.233,48.669 38.529,48.669 C 39.828,48.669 40.879,49.729 40.879,51.033 C 40.879,52.342 39.828,53.4 38.529,53.4 C 37.232,53.4 36.179,52.342 36.179,51.033 z"
         id="path2732"
         style="fill:#ffffff" />
    </g>
    <polygon
       transform="matrix(9.6913484e-2,-5.3264647e-2,5.3161536e-2,9.6864067e-2,7.0604208,30.998788)"
       style="fill:none;stroke:#000000;stroke-width:2.09050012;stroke-linejoin:round;stroke-miterlimit:10;stroke-opacity:1"
       id="polygon2902"
       points="399.148,335.866 250.561,273.231 153.198,401.769 215.833,253.182 87.296,155.818 235.883,218.454 333.246,89.917 270.611,238.504 399.148,335.866 "
       stroke-miterlimit="10" />
    <path
       style="fill:none;stroke:#000000;stroke-width:0.06513008;stroke-linejoin:round;stroke-miterlimit:10"
       id="path2872"
       d="M 49.416859,36.379735 C 51.431331,38.482233 52.112344,41.266046 51.297173,44.063736 C 50.481719,46.861586 48.411096,48.84576 45.581305,49.540912 C 42.751617,50.236254 39.999787,49.436719 37.985408,47.334169 C 35.97103,45.231625 35.28998,42.447957 36.105241,39.650217 C 36.9206,36.852416 38.991321,34.868193 41.821061,34.172947 C 44.650799,33.477697 47.402572,34.277136 49.416859,36.379735 L 49.416859,36.379735"
       stroke-miterlimit="10" />
    <polygon
       transform="matrix(9.6913484e-2,-5.3264647e-2,5.3161536e-2,9.6864067e-2,7.0604208,30.998788)"
       style="fill:#000057;fill-opacity:1;fill-rule:evenodd"
       id="polygon2898"
       points="355.6,215.731 260.273,255.688 273.334,358.22 233.377,262.894 130.844,275.954 226.17,235.998 213.11,133.465 253.066,228.791 355.6,215.731 "
       clip-rule="evenodd" />
    <polygon
       transform="matrix(9.6913484e-2,-5.3264647e-2,5.3161536e-2,9.6864067e-2,7.0604208,30.998788)"
       style="fill:#01012a;fill-opacity:1;fill-rule:evenodd"
       id="polygon2900"
       points="399.148,335.866 250.561,273.231 153.198,401.769 215.833,253.182 87.296,155.818 235.883,218.454 333.246,89.917 270.611,238.504 399.148,335.866 "
       clip-rule="evenodd" />
    <polygon
       transform="matrix(9.6913484e-2,-5.3264647e-2,5.3161536e-2,9.6864067e-2,7.0604208,30.998788)"
       style="fill:#ffffff;fill-rule:evenodd"
       id="polygon2906"
       points="255.789,249.382 271.115,245.739 375.814,318.678 255.789,249.382 "
       clip-rule="evenodd" />
    <polygon
       transform="matrix(9.6913484e-2,-5.3264647e-2,5.3161536e-2,9.6864067e-2,7.0604208,30.998788)"
       style="fill:#ffffff;fill-rule:evenodd"
       id="polygon2908"
       points="240.861,257.232 244.194,273.001 171.565,377.258 240.861,257.232 "
       clip-rule="evenodd" />
    <polygon
       transform="matrix(9.6913484e-2,-5.3264647e-2,5.3161536e-2,9.6864067e-2,7.0604208,30.998788)"
       style="fill:#ffffff;fill-rule:evenodd"
       id="polygon2910"
       points="230.654,242.304 214.843,245.608 110.628,173.007 230.654,242.304 "
       clip-rule="evenodd" />
    <polygon
       transform="matrix(9.6913484e-2,-5.3264647e-2,5.3161536e-2,9.6864067e-2,7.0604208,30.998788)"
       style="fill:#ffffff;fill-opacity:1;fill-rule:evenodd"
       id="polygon2912"
       points="246.76,233.274 244.017,216.66 316.057,113.25 246.76,233.274 "
       clip-rule="evenodd" />
    <path
       style="fill:#fffcfc;fill-rule:evenodd"
       id="path2914"
       d="M 45.381477,40.246776 C 46.269271,41.17348 46.236998,42.646836 45.30953,43.535583 C 44.381964,44.424385 42.908725,44.393628 42.020984,43.467028 C 41.133191,42.540325 41.165411,41.066868 42.092932,40.178223 C 43.020497,39.289419 44.493736,39.320172 45.381477,40.246776 L 45.381477,40.246776 z"
       clip-rule="evenodd" />
    <path
       style="fill:none;stroke:#000000;stroke-width:0.32563922;stroke-linejoin:round;stroke-miterlimit:10"
       id="path2916"
       d="M 45.381477,40.246776 C 46.269271,41.17348 46.236998,42.646836 45.30953,43.535583 C 44.381964,44.424385 42.908725,44.393628 42.020984,43.467028 C 41.133191,42.540325 41.165411,41.066868 42.092932,40.178223 C 43.020497,39.289419 44.493736,39.320172 45.381477,40.246776 L 45.381477,40.246776 z"
       stroke-miterlimit="10" />
    <path
       style="fill:#888888;fill-rule:evenodd"
       id="path2934"
       d="M 41.915196,41.95242 C 42.253942,43.226775 43.348277,43.702813 45.133571,43.265769 C 45.159407,43.276535 44.050319,43.988355 43.172343,43.732308 C 42.125127,43.426934 41.709722,41.980497 41.915196,41.95242 L 41.915196,41.95242 z"
       clip-rule="evenodd" />
    <path
       style="fill:#888888;fill-rule:evenodd"
       id="path2936"
       d="M 45.605422,42.394307 C 45.784491,41.00569 44.525594,39.68507 43.126463,39.823131 C 43.10781,39.802242 43.949767,39.659612 44.762387,40.079052 C 45.933094,40.683451 45.887777,42.428624 45.605422,42.394307 L 45.605422,42.394307 z"
       clip-rule="evenodd" />
  </g>
</svg>
